# xmcd
#
# Track frame offsets:
#	150
#	21253
#	35667
#	52231
#	68669
#	83955
#	98894
#
# Disc length: 1540 seconds
#
# Revision: 0
# Processed by: cddbd v1.5.1PL0 Copyright (c) Steve Scherf et al.
# Submitted via: audiograbber 1.83.01
#
DISCID=5c060207
DTITLE=Rambling Hillbillies - "Gubbagänget"
DYEAR=2002
DGENRE=Country
TTITLE0=Road to Hell
TTITLE1=Sons of Scotland
TTITLE2=Far From Me
TTITLE3=I'll Be Your Baby Tonight
TTITLE4=Resande Sven
TTITLE5=Across The Border
TTITLE6=Leonora
EXTD=First record by Rambling Hillbillies. Recorded in Kåseberga July 2002.
EXTT0=
EXTT1=
EXTT2=
EXTT3=
EXTT4=
EXTT5=
EXTT6=
PLAYORDER=
